# Blender v2.78 (sub 0) OBJ File: 'Slope.blend'
# www.blender.org
mtllib Slope.mtl
o Cube
v -0.500000 -0.250000 0.500000
v -0.500000 -0.250000 -0.500000
v 0.500000 -0.250000 -0.499999
v 0.499999 -0.250000 0.500000
v -0.500000 0.250000 0.500000
v -0.500000 0.250000 -0.500000
vn 0.0000 -1.0000 0.0000
vn 0.4472 0.8944 0.0000
vn -0.0000 0.0000 1.0000
vn -1.0000 -0.0000 -0.0000
vn 0.0000 0.0000 -1.0000
usemtl Material
s off
f 3//1 4//1 1//1 2//1
f 3//2 6//2 5//2 4//2
f 4//3 5//3 1//3
f 1//4 5//4 6//4 2//4
f 3//5 2//5 6//5
